<svg width="512" height="512" viewBox="0 0 512 512" fill="none" xmlns="http://www.w3.org/2000/svg" role="img" aria-label="곁애 로고">
  <defs>
    <linearGradient id="g-badge" x1="96" y1="72" x2="416" y2="440" gradientUnits="userSpaceOnUse">
      <stop offset="0" stop-color="#2c766f"/>
      <stop offset="1" stop-color="#173f3d"/>
    </linearGradient>
    <linearGradient id="g-heart" x1="128" y1="128" x2="384" y2="392" gradientUnits="userSpaceOnUse">
      <stop offset="0" stop-color="#ffffff"/>
      <stop offset="1" stop-color="#f2e7d2"/>
    </linearGradient>
    <linearGradient id="g-gold" x1="288" y1="300" x2="416" y2="432" gradientUnits="userSpaceOnUse">
      <stop offset="0" stop-color="#d9a75f"/>
      <stop offset="1" stop-color="#b9812f"/>
    </linearGradient>
  </defs>

  <!-- badge -->
  <rect x="32" y="32" width="448" height="448" rx="120" fill="url(#g-badge)"/>
  <rect x="32" y="32" width="448" height="448" rx="120" fill="#ffffff" opacity="0.05"/>
  <path d="M52 180 C 96 96 180 52 256 52" stroke="#ffffff" stroke-opacity="0.16" stroke-width="10" stroke-linecap="round" fill="none"/>

  <!-- heart (care) -->
  <path d="M247 176
    C 247 143 214 116 176 116
    C 122 116 92 158 92 200
    C 92 272 176 328 247 380
    C 250 382 254 382 257 380
    C 328 328 412 272 412 200
    C 412 158 382 116 328 116
    C 290 116 257 143 257 176
    C 257 176 247 176 247 176 Z"
    fill="url(#g-heart)"/>

  <!-- verified badge (gold, bottom-right) -->
  <circle cx="356" cy="356" r="82" fill="url(#g-badge)"/>
  <circle cx="356" cy="356" r="72" fill="url(#g-gold)"/>
  <path d="M320 357 L346 383 L396 328" stroke="#ffffff" stroke-width="20" stroke-linecap="round" stroke-linejoin="round" fill="none"/>
</svg>
